<svg width="14" height="20" viewBox="0 0 14 20" fill="none" xmlns="http://www.w3.org/2000/svg">
<path d="M4.60008 14.7997V14.6714C4.60008 13.7174 4.00493 12.8859 3.25979 12.2907C2.28722 11.5151 1.5798 10.4564 1.23544 9.26101C0.891073 8.06565 0.926796 6.7928 1.33766 5.61864C1.74853 4.44448 2.51422 3.42706 3.52876 2.70721C4.5433 1.98736 5.75651 1.60068 7.00049 1.60068C8.24446 1.60068 9.45768 1.98736 10.4722 2.70721C11.4868 3.42706 12.2524 4.44448 12.6633 5.61864C13.0742 6.7928 13.1099 8.06565 12.7655 9.26101C12.4212 10.4564 11.7138 11.5151 10.7412 12.2907C9.99484 12.8871 9.39969 13.7174 9.39969 14.6714V14.7997M4.60008 14.7997V17.1995C4.60008 17.5178 4.7265 17.823 4.95153 18.048C5.17655 18.273 5.48175 18.3995 5.79999 18.3995H8.19979C8.51802 18.3995 8.82322 18.273 9.04825 18.048C9.27327 17.823 9.39969 17.5178 9.39969 17.1995V14.7997M4.60008 14.7997H9.39969M6.99989 11.2V8.80023" stroke="white" stroke-width="1.5" stroke-linecap="round" stroke-linejoin="round"/>
</svg>
