<svg width="22" height="22" viewBox="0 0 22 22" fill="none" xmlns="http://www.w3.org/2000/svg">
<path d="M8.77778 17.6667V17.5478C8.77778 16.6644 8.22667 15.8944 7.53667 15.3433C6.63607 14.6251 5.98099 13.6447 5.66211 12.5378C5.34323 11.4309 5.37631 10.2522 5.75677 9.16495C6.13723 8.07768 6.84627 7.13555 7.78573 6.46897C8.7252 5.80239 9.84863 5.44431 11.0006 5.44431C12.1525 5.44431 13.2759 5.80239 14.2154 6.46897C15.1548 7.13555 15.8639 8.07768 16.2443 9.16495C16.6248 10.2522 16.6579 11.4309 16.339 12.5378C16.0201 13.6447 15.365 14.6251 14.4644 15.3433C13.7733 15.8956 13.2222 16.6644 13.2222 17.5478V17.6667M8.77778 17.6667V19.8889C8.77778 20.1836 8.89484 20.4662 9.10322 20.6746C9.31159 20.8829 9.5942 21 9.88889 21H12.1111C12.4058 21 12.6884 20.8829 12.8968 20.6746C13.1052 20.4662 13.2222 20.1836 13.2222 19.8889V17.6667M8.77778 17.6667H13.2222M19.8889 11H21M2.11111 11H1M11 2.11111V1M17.2856 4.71444L18.0711 3.92889M4.71556 4.71444L3.92889 3.92889M11 14.3333V12.1111" stroke="white" stroke-width="1.5" stroke-linecap="round" stroke-linejoin="round"/>
</svg>
